<?xml version="1.0" encoding="UTF-8" standalone="no"?>
<!DOCTYPE svg PUBLIC "-//W3C//DTD SVG 1.1//EN"
 "http://www.w3.org/Graphics/SVG/1.1/DTD/svg11.dtd">
<!-- Generated by graphviz version 5.0.0 (20220707.1540)
 -->
<!-- Title: dependencies Pages: 1 -->
<svg width="770pt" height="174pt"
 viewBox="0.00 0.00 770.00 173.80" xmlns="http://www.w3.org/2000/svg" xmlns:xlink="http://www.w3.org/1999/xlink">
<g id="graph0" class="graph" transform="scale(1 1) rotate(0) translate(4 169.8)">
<title>dependencies</title>
<polygon fill="white" stroke="transparent" points="-4,4 -4,-169.8 766,-169.8 766,4 -4,4"/>
<text text-anchor="middle" x="381" y="-8.2" font-family="sans-serif" font-size="14.00">dependencies</text>
<g id="clust1" class="cluster">
<title>cluster_HomePageModule</title>
<polygon fill="none" stroke="black" stroke-dasharray="1,5" points="8,-32.8 8,-157.8 754,-157.8 754,-32.8 8,-32.8"/>
</g>
<g id="clust2" class="cluster">
<title>cluster_HomePageModule_declarations</title>
<polygon fill="none" stroke="black" points="206,-40.8 206,-92.8 746,-92.8 746,-40.8 206,-40.8"/>
</g>
<g id="clust7" class="cluster">
<title>cluster_HomePageModule_imports</title>
<polygon fill="none" stroke="black" points="16,-40.8 16,-92.8 198,-92.8 198,-40.8 16,-40.8"/>
</g>
<!-- AnswersComponent -->
<g id="node1" class="node">
<title>AnswersComponent</title>
<polygon fill="#ffffb3" stroke="black" points="738.32,-84.8 607.68,-84.8 607.68,-48.8 738.32,-48.8 738.32,-84.8"/>
<text text-anchor="middle" x="673" y="-62.6" font-family="Times,serif" font-size="14.00">AnswersComponent</text>
</g>
<!-- HomePageModule -->
<g id="node5" class="node">
<title>HomePageModule</title>
<polygon fill="#8dd3c7" stroke="black" points="497.48,-149.8 494.48,-153.8 473.48,-153.8 470.48,-149.8 376.52,-149.8 376.52,-113.8 497.48,-113.8 497.48,-149.8"/>
<text text-anchor="middle" x="437" y="-127.6" font-family="Times,serif" font-size="14.00">HomePageModule</text>
</g>
<!-- AnswersComponent&#45;&gt;HomePageModule -->
<g id="edge1" class="edge">
<title>AnswersComponent&#45;&gt;HomePageModule</title>
<path fill="none" stroke="black" d="M673,-85.08C673,-106.12 673,-137.8 673,-137.8 673,-137.8 507.78,-137.8 507.78,-137.8"/>
<polygon fill="black" stroke="black" points="507.78,-134.3 497.78,-137.8 507.78,-141.3 507.78,-134.3"/>
</g>
<!-- HomePage -->
<g id="node2" class="node">
<title>HomePage</title>
<polygon fill="#ffffb3" stroke="black" points="589.93,-84.8 512.07,-84.8 512.07,-48.8 589.93,-48.8 589.93,-84.8"/>
<text text-anchor="middle" x="551" y="-62.6" font-family="Times,serif" font-size="14.00">HomePage</text>
</g>
<!-- HomePage&#45;&gt;HomePageModule -->
<g id="edge2" class="edge">
<title>HomePage&#45;&gt;HomePageModule</title>
<path fill="none" stroke="black" d="M551,-84.82C551,-102.17 551,-125.8 551,-125.8 551,-125.8 507.67,-125.8 507.67,-125.8"/>
<polygon fill="black" stroke="black" points="507.67,-122.3 497.67,-125.8 507.67,-129.3 507.67,-122.3"/>
</g>
<!-- LoginComponent -->
<g id="node3" class="node">
<title>LoginComponent</title>
<polygon fill="#ffffb3" stroke="black" points="494.27,-84.8 379.73,-84.8 379.73,-48.8 494.27,-48.8 494.27,-84.8"/>
<text text-anchor="middle" x="437" y="-62.6" font-family="Times,serif" font-size="14.00">LoginComponent</text>
</g>
<!-- LoginComponent&#45;&gt;HomePageModule -->
<g id="edge3" class="edge">
<title>LoginComponent&#45;&gt;HomePageModule</title>
<path fill="none" stroke="black" d="M437,-84.91C437,-84.91 437,-103.79 437,-103.79"/>
<polygon fill="black" stroke="black" points="433.5,-103.79 437,-113.79 440.5,-103.79 433.5,-103.79"/>
</g>
<!-- SurveyformComponent -->
<g id="node4" class="node">
<title>SurveyformComponent</title>
<polygon fill="#ffffb3" stroke="black" points="362.21,-84.8 213.79,-84.8 213.79,-48.8 362.21,-48.8 362.21,-84.8"/>
<text text-anchor="middle" x="288" y="-62.6" font-family="Times,serif" font-size="14.00">SurveyformComponent</text>
</g>
<!-- SurveyformComponent&#45;&gt;HomePageModule -->
<g id="edge4" class="edge">
<title>SurveyformComponent&#45;&gt;HomePageModule</title>
<path fill="none" stroke="black" d="M288,-84.82C288,-102.17 288,-125.8 288,-125.8 288,-125.8 366.4,-125.8 366.4,-125.8"/>
<polygon fill="black" stroke="black" points="366.4,-129.3 376.4,-125.8 366.4,-122.3 366.4,-129.3"/>
</g>
<!-- HomePageRoutingModule -->
<g id="node6" class="node">
<title>HomePageRoutingModule</title>
<polygon fill="#8dd3c7" stroke="black" points="190.1,-84.8 187.1,-88.8 166.1,-88.8 163.1,-84.8 23.9,-84.8 23.9,-48.8 190.1,-48.8 190.1,-84.8"/>
<text text-anchor="middle" x="107" y="-62.6" font-family="Times,serif" font-size="14.00">HomePageRoutingModule</text>
</g>
<!-- HomePageRoutingModule&#45;&gt;HomePageModule -->
<g id="edge5" class="edge">
<title>HomePageRoutingModule&#45;&gt;HomePageModule</title>
<path fill="none" stroke="black" d="M107,-85.08C107,-106.12 107,-137.8 107,-137.8 107,-137.8 366.47,-137.8 366.47,-137.8"/>
<polygon fill="black" stroke="black" points="366.47,-141.3 376.47,-137.8 366.47,-134.3 366.47,-141.3"/>
</g>
</g>
</svg>
