<?xml version="1.0" encoding="UTF-8" standalone="no"?>
<!DOCTYPE svg PUBLIC "-//W3C//DTD SVG 1.1//EN"
 "http://www.w3.org/Graphics/SVG/1.1/DTD/svg11.dtd">
<!-- Generated by graphviz version 5.0.0 (20220707.1540)
 -->
<!-- Title: dependencies Pages: 1 -->
<svg width="622pt" height="174pt"
 viewBox="0.00 0.00 622.00 173.80" xmlns="http://www.w3.org/2000/svg" xmlns:xlink="http://www.w3.org/1999/xlink">
<g id="graph0" class="graph" transform="scale(1 1) rotate(0) translate(4 169.8)">
<title>dependencies</title>
<polygon fill="white" stroke="transparent" points="-4,4 -4,-169.8 618,-169.8 618,4 -4,4"/>
<text text-anchor="middle" x="307" y="-8.2" font-family="sans-serif" font-size="14.00">dependencies</text>
<g id="clust1" class="cluster">
<title>cluster_HomePageModule</title>
<polygon fill="none" stroke="black" stroke-dasharray="1,5" points="8,-32.8 8,-157.8 606,-157.8 606,-32.8 8,-32.8"/>
</g>
<g id="clust2" class="cluster">
<title>cluster_HomePageModule_declarations</title>
<polygon fill="none" stroke="black" points="206,-40.8 206,-92.8 598,-92.8 598,-40.8 206,-40.8"/>
</g>
<g id="clust6" class="cluster">
<title>cluster_HomePageModule_imports</title>
<polygon fill="none" stroke="black" points="16,-40.8 16,-92.8 198,-92.8 198,-40.8 16,-40.8"/>
</g>
<!-- HomePage -->
<g id="node1" class="node">
<title>HomePage</title>
<polygon fill="#ffffb3" stroke="black" points="589.93,-84.8 512.07,-84.8 512.07,-48.8 589.93,-48.8 589.93,-84.8"/>
<text text-anchor="middle" x="551" y="-62.6" font-family="Times,serif" font-size="14.00">HomePage</text>
</g>
<!-- HomePageModule -->
<g id="node4" class="node">
<title>HomePageModule</title>
<polygon fill="#8dd3c7" stroke="black" points="422.48,-149.8 419.48,-153.8 398.48,-153.8 395.48,-149.8 301.52,-149.8 301.52,-113.8 422.48,-113.8 422.48,-149.8"/>
<text text-anchor="middle" x="362" y="-127.6" font-family="Times,serif" font-size="14.00">HomePageModule</text>
</g>
<!-- HomePage&#45;&gt;HomePageModule -->
<g id="edge1" class="edge">
<title>HomePage&#45;&gt;HomePageModule</title>
<path fill="none" stroke="black" d="M551,-84.91C551,-104.14 551,-131.8 551,-131.8 551,-131.8 432.58,-131.8 432.58,-131.8"/>
<polygon fill="black" stroke="black" points="432.58,-128.3 422.58,-131.8 432.58,-135.3 432.58,-128.3"/>
</g>
<!-- LoginComponent -->
<g id="node2" class="node">
<title>LoginComponent</title>
<polygon fill="#ffffb3" stroke="black" points="494.27,-84.8 379.73,-84.8 379.73,-48.8 494.27,-48.8 494.27,-84.8"/>
<text text-anchor="middle" x="437" y="-62.6" font-family="Times,serif" font-size="14.00">LoginComponent</text>
</g>
<!-- LoginComponent&#45;&gt;HomePageModule -->
<g id="edge2" class="edge">
<title>LoginComponent&#45;&gt;HomePageModule</title>
<path fill="none" stroke="black" d="M401.05,-84.91C401.05,-84.91 401.05,-103.79 401.05,-103.79"/>
<polygon fill="black" stroke="black" points="397.55,-103.79 401.05,-113.79 404.55,-103.79 397.55,-103.79"/>
</g>
<!-- SurveyformComponent -->
<g id="node3" class="node">
<title>SurveyformComponent</title>
<polygon fill="#ffffb3" stroke="black" points="362.21,-84.8 213.79,-84.8 213.79,-48.8 362.21,-48.8 362.21,-84.8"/>
<text text-anchor="middle" x="288" y="-62.6" font-family="Times,serif" font-size="14.00">SurveyformComponent</text>
</g>
<!-- SurveyformComponent&#45;&gt;HomePageModule -->
<g id="edge3" class="edge">
<title>SurveyformComponent&#45;&gt;HomePageModule</title>
<path fill="none" stroke="black" d="M331.81,-84.91C331.81,-84.91 331.81,-103.79 331.81,-103.79"/>
<polygon fill="black" stroke="black" points="328.31,-103.79 331.81,-113.79 335.31,-103.79 328.31,-103.79"/>
</g>
<!-- HomePageRoutingModule -->
<g id="node5" class="node">
<title>HomePageRoutingModule</title>
<polygon fill="#8dd3c7" stroke="black" points="190.1,-84.8 187.1,-88.8 166.1,-88.8 163.1,-84.8 23.9,-84.8 23.9,-48.8 190.1,-48.8 190.1,-84.8"/>
<text text-anchor="middle" x="107" y="-62.6" font-family="Times,serif" font-size="14.00">HomePageRoutingModule</text>
</g>
<!-- HomePageRoutingModule&#45;&gt;HomePageModule -->
<g id="edge4" class="edge">
<title>HomePageRoutingModule&#45;&gt;HomePageModule</title>
<path fill="none" stroke="black" d="M107,-84.91C107,-104.14 107,-131.8 107,-131.8 107,-131.8 291.25,-131.8 291.25,-131.8"/>
<polygon fill="black" stroke="black" points="291.25,-135.3 301.25,-131.8 291.25,-128.3 291.25,-135.3"/>
</g>
</g>
</svg>
