<?xml version="1.0" encoding="UTF-8" standalone="no"?>
<!DOCTYPE svg PUBLIC "-//W3C//DTD SVG 1.1//EN"
 "http://www.w3.org/Graphics/SVG/1.1/DTD/svg11.dtd">
<!-- Generated by graphviz version 5.0.0 (20220707.1540)
 -->
<!-- Title: dependencies Pages: 1 -->
<svg width="466pt" height="247pt"
 viewBox="0.00 0.00 466.00 246.80" xmlns="http://www.w3.org/2000/svg" xmlns:xlink="http://www.w3.org/1999/xlink">
<g id="graph0" class="graph" transform="scale(1 1) rotate(0) translate(4 242.8)">
<title>dependencies</title>
<polygon fill="white" stroke="transparent" points="-4,4 -4,-242.8 462,-242.8 462,4 -4,4"/>
<text text-anchor="middle" x="229" y="-8.2" font-family="sans-serif" font-size="14.00">dependencies</text>
<g id="clust1" class="cluster">
<title>cluster_AppModule</title>
<polygon fill="none" stroke="black" stroke-dasharray="1,5" points="8,-32.8 8,-230.8 450,-230.8 450,-32.8 8,-32.8"/>
</g>
<g id="clust5" class="cluster">
<title>cluster_AppModule_imports</title>
<polygon fill="none" stroke="black" points="298,-40.8 298,-92.8 442,-92.8 442,-40.8 298,-40.8"/>
</g>
<g id="clust7" class="cluster">
<title>cluster_AppModule_bootstrap</title>
<polygon fill="none" stroke="black" points="167,-170.8 167,-222.8 291,-222.8 291,-170.8 167,-170.8"/>
</g>
<g id="clust2" class="cluster">
<title>cluster_AppModule_declarations</title>
<polygon fill="none" stroke="black" points="16,-40.8 16,-92.8 290,-92.8 290,-40.8 16,-40.8"/>
</g>
<!-- AppComponent -->
<g id="node1" class="node">
<title>AppComponent</title>
<polygon fill="#ffffb3" stroke="black" points="281.94,-84.8 176.06,-84.8 176.06,-48.8 281.94,-48.8 281.94,-84.8"/>
<text text-anchor="middle" x="229" y="-62.6" font-family="Times,serif" font-size="14.00">AppComponent</text>
</g>
<!-- AppModule -->
<g id="node3" class="node">
<title>AppModule</title>
<polygon fill="#8dd3c7" stroke="black" points="270.66,-149.8 267.66,-153.8 246.66,-153.8 243.66,-149.8 187.34,-149.8 187.34,-113.8 270.66,-113.8 270.66,-149.8"/>
<text text-anchor="middle" x="229" y="-127.6" font-family="Times,serif" font-size="14.00">AppModule</text>
</g>
<!-- AppComponent&#45;&gt;AppModule -->
<g id="edge1" class="edge">
<title>AppComponent&#45;&gt;AppModule</title>
<path fill="none" stroke="black" d="M229,-84.91C229,-84.91 229,-103.79 229,-103.79"/>
<polygon fill="black" stroke="black" points="225.5,-103.79 229,-113.79 232.5,-103.79 225.5,-103.79"/>
</g>
<!-- ExcelreaderDirective -->
<g id="node2" class="node">
<title>ExcelreaderDirective</title>
<polygon fill="#ffffb3" stroke="black" points="158.42,-84.8 23.58,-84.8 23.58,-48.8 158.42,-48.8 158.42,-84.8"/>
<text text-anchor="middle" x="91" y="-62.6" font-family="Times,serif" font-size="14.00">ExcelreaderDirective</text>
</g>
<!-- ExcelreaderDirective&#45;&gt;AppModule -->
<g id="edge2" class="edge">
<title>ExcelreaderDirective&#45;&gt;AppModule</title>
<path fill="none" stroke="black" d="M91,-84.91C91,-104.14 91,-131.8 91,-131.8 91,-131.8 177.22,-131.8 177.22,-131.8"/>
<polygon fill="black" stroke="black" points="177.22,-135.3 187.22,-131.8 177.22,-128.3 177.22,-135.3"/>
</g>
<!-- AppComponent  -->
<g id="node5" class="node">
<title>AppComponent </title>
<polygon fill="#80b1d3" stroke="black" points="283.44,-214.8 174.56,-214.8 174.56,-178.8 283.44,-178.8 283.44,-214.8"/>
<text text-anchor="middle" x="229" y="-192.6" font-family="Times,serif" font-size="14.00">AppComponent </text>
</g>
<!-- AppModule&#45;&gt;AppComponent  -->
<g id="edge4" class="edge">
<title>AppModule&#45;&gt;AppComponent </title>
<path fill="none" stroke="black" stroke-dasharray="1,5" d="M229,-149.91C229,-149.91 229,-168.79 229,-168.79"/>
<polygon fill="black" stroke="black" points="225.5,-168.79 229,-178.79 232.5,-168.79 225.5,-168.79"/>
</g>
<!-- AppRoutingModule -->
<g id="node4" class="node">
<title>AppRoutingModule</title>
<polygon fill="#8dd3c7" stroke="black" points="434.28,-84.8 431.28,-88.8 410.28,-88.8 407.28,-84.8 305.72,-84.8 305.72,-48.8 434.28,-48.8 434.28,-84.8"/>
<text text-anchor="middle" x="370" y="-62.6" font-family="Times,serif" font-size="14.00">AppRoutingModule</text>
</g>
<!-- AppRoutingModule&#45;&gt;AppModule -->
<g id="edge3" class="edge">
<title>AppRoutingModule&#45;&gt;AppModule</title>
<path fill="none" stroke="black" d="M370,-84.91C370,-104.14 370,-131.8 370,-131.8 370,-131.8 280.92,-131.8 280.92,-131.8"/>
<polygon fill="black" stroke="black" points="280.92,-128.3 270.92,-131.8 280.92,-135.3 280.92,-128.3"/>
</g>
</g>
</svg>
