<?xml version="1.0" encoding="UTF-8" standalone="no"?>
<!DOCTYPE svg PUBLIC "-//W3C//DTD SVG 1.1//EN"
 "http://www.w3.org/Graphics/SVG/1.1/DTD/svg11.dtd">
<!-- Generated by graphviz version 5.0.0 (20220707.1540)
 -->
<!-- Title: dependencies Pages: 1 -->
<svg width="1220pt" height="247pt"
 viewBox="0.00 0.00 1220.00 246.80" xmlns="http://www.w3.org/2000/svg" xmlns:xlink="http://www.w3.org/1999/xlink">
<g id="graph0" class="graph" transform="scale(1 1) rotate(0) translate(4 242.8)">
<title>dependencies</title>
<polygon fill="white" stroke="transparent" points="-4,4 -4,-242.8 1216,-242.8 1216,4 -4,4"/>
<text text-anchor="middle" x="606" y="-8.2" font-family="sans-serif" font-size="14.00">dependencies</text>
<g id="clust1" class="cluster">
<title>cluster_AppModule</title>
<polygon fill="none" stroke="black" stroke-dasharray="1,5" points="8,-32.8 8,-230.8 450,-230.8 450,-32.8 8,-32.8"/>
</g>
<g id="clust2" class="cluster">
<title>cluster_AppModule_declarations</title>
<polygon fill="none" stroke="black" points="168,-40.8 168,-92.8 442,-92.8 442,-40.8 168,-40.8"/>
</g>
<g id="clust5" class="cluster">
<title>cluster_AppModule_imports</title>
<polygon fill="none" stroke="black" points="16,-40.8 16,-92.8 160,-92.8 160,-40.8 16,-40.8"/>
</g>
<g id="clust7" class="cluster">
<title>cluster_AppModule_bootstrap</title>
<polygon fill="none" stroke="black" points="181,-170.8 181,-222.8 305,-222.8 305,-170.8 181,-170.8"/>
</g>
<g id="clust15" class="cluster">
<title>cluster_HomePageModule</title>
<polygon fill="none" stroke="black" stroke-dasharray="1,5" points="458,-32.8 458,-157.8 1204,-157.8 1204,-32.8 458,-32.8"/>
</g>
<g id="clust16" class="cluster">
<title>cluster_HomePageModule_declarations</title>
<polygon fill="none" stroke="black" points="656,-40.8 656,-92.8 1196,-92.8 1196,-40.8 656,-40.8"/>
</g>
<g id="clust21" class="cluster">
<title>cluster_HomePageModule_imports</title>
<polygon fill="none" stroke="black" points="466,-40.8 466,-92.8 648,-92.8 648,-40.8 466,-40.8"/>
</g>
<!-- AppComponent -->
<g id="node1" class="node">
<title>AppComponent</title>
<polygon fill="#ffffb3" stroke="black" points="433.94,-84.8 328.06,-84.8 328.06,-48.8 433.94,-48.8 433.94,-84.8"/>
<text text-anchor="middle" x="381" y="-62.6" font-family="Times,serif" font-size="14.00">AppComponent</text>
</g>
<!-- AppModule -->
<g id="node3" class="node">
<title>AppModule</title>
<polygon fill="#8dd3c7" stroke="black" points="284.66,-149.8 281.66,-153.8 260.66,-153.8 257.66,-149.8 201.34,-149.8 201.34,-113.8 284.66,-113.8 284.66,-149.8"/>
<text text-anchor="middle" x="243" y="-127.6" font-family="Times,serif" font-size="14.00">AppModule</text>
</g>
<!-- AppComponent&#45;&gt;AppModule -->
<g id="edge1" class="edge">
<title>AppComponent&#45;&gt;AppModule</title>
<path fill="none" stroke="black" d="M381,-85.09C381,-107.01 381,-140.8 381,-140.8 381,-140.8 294.78,-140.8 294.78,-140.8"/>
<polygon fill="black" stroke="black" points="294.78,-137.3 284.78,-140.8 294.78,-144.3 294.78,-137.3"/>
</g>
<!-- ExcelreaderDirective -->
<g id="node2" class="node">
<title>ExcelreaderDirective</title>
<polygon fill="#ffffb3" stroke="black" points="310.42,-84.8 175.58,-84.8 175.58,-48.8 310.42,-48.8 310.42,-84.8"/>
<text text-anchor="middle" x="243" y="-62.6" font-family="Times,serif" font-size="14.00">ExcelreaderDirective</text>
</g>
<!-- ExcelreaderDirective&#45;&gt;AppModule -->
<g id="edge2" class="edge">
<title>ExcelreaderDirective&#45;&gt;AppModule</title>
<path fill="none" stroke="black" d="M243,-84.91C243,-84.91 243,-103.79 243,-103.79"/>
<polygon fill="black" stroke="black" points="239.5,-103.79 243,-113.79 246.5,-103.79 239.5,-103.79"/>
</g>
<!-- AppComponent  -->
<g id="node5" class="node">
<title>AppComponent </title>
<polygon fill="#80b1d3" stroke="black" points="297.44,-214.8 188.56,-214.8 188.56,-178.8 297.44,-178.8 297.44,-214.8"/>
<text text-anchor="middle" x="243" y="-192.6" font-family="Times,serif" font-size="14.00">AppComponent </text>
</g>
<!-- AppModule&#45;&gt;AppComponent  -->
<g id="edge4" class="edge">
<title>AppModule&#45;&gt;AppComponent </title>
<path fill="none" stroke="black" stroke-dasharray="1,5" d="M243,-149.91C243,-149.91 243,-168.79 243,-168.79"/>
<polygon fill="black" stroke="black" points="239.5,-168.79 243,-178.79 246.5,-168.79 239.5,-168.79"/>
</g>
<!-- AppRoutingModule -->
<g id="node4" class="node">
<title>AppRoutingModule</title>
<polygon fill="#8dd3c7" stroke="black" points="152.28,-84.8 149.28,-88.8 128.28,-88.8 125.28,-84.8 23.72,-84.8 23.72,-48.8 152.28,-48.8 152.28,-84.8"/>
<text text-anchor="middle" x="88" y="-62.6" font-family="Times,serif" font-size="14.00">AppRoutingModule</text>
</g>
<!-- AppRoutingModule&#45;&gt;AppModule -->
<g id="edge3" class="edge">
<title>AppRoutingModule&#45;&gt;AppModule</title>
<path fill="none" stroke="black" d="M88,-84.91C88,-104.14 88,-131.8 88,-131.8 88,-131.8 191.05,-131.8 191.05,-131.8"/>
<polygon fill="black" stroke="black" points="191.05,-135.3 201.05,-131.8 191.05,-128.3 191.05,-135.3"/>
</g>
<!-- AnswersComponent -->
<g id="node6" class="node">
<title>AnswersComponent</title>
<polygon fill="#ffffb3" stroke="black" points="1188.32,-84.8 1057.68,-84.8 1057.68,-48.8 1188.32,-48.8 1188.32,-84.8"/>
<text text-anchor="middle" x="1123" y="-62.6" font-family="Times,serif" font-size="14.00">AnswersComponent</text>
</g>
<!-- HomePageModule -->
<g id="node10" class="node">
<title>HomePageModule</title>
<polygon fill="#8dd3c7" stroke="black" points="947.48,-149.8 944.48,-153.8 923.48,-153.8 920.48,-149.8 826.52,-149.8 826.52,-113.8 947.48,-113.8 947.48,-149.8"/>
<text text-anchor="middle" x="887" y="-127.6" font-family="Times,serif" font-size="14.00">HomePageModule</text>
</g>
<!-- AnswersComponent&#45;&gt;HomePageModule -->
<g id="edge5" class="edge">
<title>AnswersComponent&#45;&gt;HomePageModule</title>
<path fill="none" stroke="black" d="M1123,-85.08C1123,-106.12 1123,-137.8 1123,-137.8 1123,-137.8 957.78,-137.8 957.78,-137.8"/>
<polygon fill="black" stroke="black" points="957.78,-134.3 947.78,-137.8 957.78,-141.3 957.78,-134.3"/>
</g>
<!-- HomePage -->
<g id="node7" class="node">
<title>HomePage</title>
<polygon fill="#ffffb3" stroke="black" points="1039.93,-84.8 962.07,-84.8 962.07,-48.8 1039.93,-48.8 1039.93,-84.8"/>
<text text-anchor="middle" x="1001" y="-62.6" font-family="Times,serif" font-size="14.00">HomePage</text>
</g>
<!-- HomePage&#45;&gt;HomePageModule -->
<g id="edge6" class="edge">
<title>HomePage&#45;&gt;HomePageModule</title>
<path fill="none" stroke="black" d="M1001,-84.82C1001,-102.17 1001,-125.8 1001,-125.8 1001,-125.8 957.67,-125.8 957.67,-125.8"/>
<polygon fill="black" stroke="black" points="957.67,-122.3 947.67,-125.8 957.67,-129.3 957.67,-122.3"/>
</g>
<!-- LoginComponent -->
<g id="node8" class="node">
<title>LoginComponent</title>
<polygon fill="#ffffb3" stroke="black" points="944.27,-84.8 829.73,-84.8 829.73,-48.8 944.27,-48.8 944.27,-84.8"/>
<text text-anchor="middle" x="887" y="-62.6" font-family="Times,serif" font-size="14.00">LoginComponent</text>
</g>
<!-- LoginComponent&#45;&gt;HomePageModule -->
<g id="edge7" class="edge">
<title>LoginComponent&#45;&gt;HomePageModule</title>
<path fill="none" stroke="black" d="M887,-84.91C887,-84.91 887,-103.79 887,-103.79"/>
<polygon fill="black" stroke="black" points="883.5,-103.79 887,-113.79 890.5,-103.79 883.5,-103.79"/>
</g>
<!-- SurveyformComponent -->
<g id="node9" class="node">
<title>SurveyformComponent</title>
<polygon fill="#ffffb3" stroke="black" points="812.21,-84.8 663.79,-84.8 663.79,-48.8 812.21,-48.8 812.21,-84.8"/>
<text text-anchor="middle" x="738" y="-62.6" font-family="Times,serif" font-size="14.00">SurveyformComponent</text>
</g>
<!-- SurveyformComponent&#45;&gt;HomePageModule -->
<g id="edge8" class="edge">
<title>SurveyformComponent&#45;&gt;HomePageModule</title>
<path fill="none" stroke="black" d="M738,-84.83C738,-101.2 738,-122.8 738,-122.8 738,-122.8 816.4,-122.8 816.4,-122.8"/>
<polygon fill="black" stroke="black" points="816.4,-126.3 826.4,-122.8 816.4,-119.3 816.4,-126.3"/>
</g>
<!-- HomePageRoutingModule -->
<g id="node11" class="node">
<title>HomePageRoutingModule</title>
<polygon fill="#8dd3c7" stroke="black" points="640.1,-84.8 637.1,-88.8 616.1,-88.8 613.1,-84.8 473.9,-84.8 473.9,-48.8 640.1,-48.8 640.1,-84.8"/>
<text text-anchor="middle" x="557" y="-62.6" font-family="Times,serif" font-size="14.00">HomePageRoutingModule</text>
</g>
<!-- HomePageRoutingModule&#45;&gt;HomePageModule -->
<g id="edge9" class="edge">
<title>HomePageRoutingModule&#45;&gt;HomePageModule</title>
<path fill="none" stroke="black" d="M557,-84.91C557,-104.14 557,-131.8 557,-131.8 557,-131.8 816.47,-131.8 816.47,-131.8"/>
<polygon fill="black" stroke="black" points="816.47,-135.3 826.47,-131.8 816.47,-128.3 816.47,-135.3"/>
</g>
</g>
</svg>
